<svg width="19" height="17" viewBox="0 0 19 17" fill="none" xmlns="http://www.w3.org/2000/svg">
<path d="M9.01426 17C8.71426 17 8.41426 16.9 8.21426 16.6C2.81426 10.5 1.51426 9.1 1.21426 8.7C0.514258 7.8 0.114258 6.6 0.114258 5.4C0.114258 2.4 2.51426 0 5.61426 0C6.91426 0 8.11426 0.5 9.11426 1.3C10.1143 0.5 11.4143 0 12.6143 0C15.6143 0 18.1143 2.4 18.1143 5.4C18.1143 6.7 17.6143 7.9 16.8143 8.8L9.81426 16.7C9.61426 16.9 9.41426 17 9.01426 17ZM3.01426 7.5C3.31426 7.9 6.51426 11.5 9.11426 14.4L15.3143 7.4C15.8143 6.9 16.0143 6.2 16.0143 5.4C16.0143 3.6 14.5143 2.1 12.7143 2.1C11.7143 2.1 10.7143 2.6 10.0143 3.4C9.71426 3.7 9.41426 3.8 9.11426 3.8C8.81426 3.8 8.51426 3.6 8.31426 3.4C7.61426 2.6 6.61426 2.1 5.61426 2.1C3.81426 2.1 2.31426 3.6 2.31426 5.4C2.21426 6.3 2.61426 7 3.01426 7.5C2.91426 7.5 2.91426 7.5 3.01426 7.5Z" fill="black"/>
</svg>
